<svg width="834" height="100" viewBox="0 0 834 100" fill="none" xmlns="http://www.w3.org/2000/svg">
<path fill-rule="evenodd" clip-rule="evenodd" d="M57.6641 47.0799C59.5749 48.413 61.5161 49.7245 63.4868 51.0139L64.0343 50.1771C62.0718 48.8931 60.1389 47.5871 58.2362 46.2598L57.6641 47.0799ZM404.514 51.0139C406.485 49.7245 408.426 48.413 410.337 47.08L409.765 46.2598C407.862 47.5872 405.929 48.8931 403.966 50.1772L404.514 51.0139ZM69.4251 54.7775C71.4174 56.0004 73.4374 57.2015 75.4844 58.3803L75.9834 57.5137C73.9445 56.3396 71.9325 55.1432 69.9483 53.9252L69.4251 54.7775ZM392.516 58.3803C394.563 57.2016 396.583 56.0005 398.576 54.7775L398.053 53.9253C396.068 55.1433 394.056 56.3396 392.017 57.5137L392.516 58.3803ZM81.6191 61.8022C83.671 62.9106 85.748 63.9972 87.8493 65.0613L88.3011 64.1692C86.2076 63.109 84.1385 62.0266 82.0944 60.9224L81.6191 61.8022ZM380.151 65.0614C382.253 63.9972 384.33 62.9106 386.382 61.8022L385.906 60.9224C383.862 62.0266 381.793 63.109 379.7 64.1693L380.151 65.0614ZM94.1819 68.1656C96.285 69.1631 98.4108 70.1387 100.559 71.092L100.964 70.178C98.824 69.2281 96.7059 68.2559 94.6104 67.262L94.1819 68.1656ZM367.442 71.092C369.59 70.1387 371.716 69.1631 373.819 68.1656L373.39 67.2621C371.295 68.256 369.177 69.2281 367.037 70.178L367.442 71.092ZM107.024 73.8666C109.183 74.7617 111.362 75.6346 113.562 76.485L113.922 75.5522C111.73 74.7048 109.558 73.8348 107.407 72.9429L107.024 73.8666ZM354.439 76.485C356.639 75.6346 358.818 74.7617 360.977 73.8666L360.593 72.9429C358.442 73.8349 356.271 74.7048 354.079 75.5523L354.439 76.485ZM120.139 78.9389C122.339 79.7304 124.558 80.4996 126.795 81.2462L127.111 80.2977C124.882 79.5535 122.67 78.7868 120.477 77.9979L120.139 78.9389ZM341.206 81.2463C343.443 80.4997 345.662 79.7304 347.862 78.9389L347.523 77.998C345.331 78.7868 343.119 79.5535 340.89 80.2977L341.206 81.2463ZM133.483 83.3941C135.714 84.0825 137.961 84.7487 140.224 85.3922L140.498 84.4303C138.241 83.7888 136.001 83.1248 133.778 82.4386L133.483 83.3941ZM327.776 85.3922C330.04 84.7487 332.287 84.0825 334.517 83.3942L334.222 82.4386C331.999 83.1248 329.759 83.7888 327.503 84.4303L327.776 85.3922ZM147.021 87.2434C149.276 87.831 151.546 88.3965 153.831 88.9393L154.062 87.9664C151.784 87.4252 149.521 86.8615 147.273 86.2757L147.021 87.2434ZM314.17 88.9393C316.455 88.3965 318.725 87.8311 320.98 87.2434L320.728 86.2758C318.48 86.8615 316.217 87.4252 313.939 87.9664L314.17 88.9393ZM160.702 90.4938C162.981 90.984 165.275 91.4519 167.582 91.8972L167.771 90.9153C165.471 90.4714 163.185 90.0049 160.912 89.5162L160.702 90.4938ZM300.419 91.8972C302.726 91.452 305.019 90.984 307.299 90.4939L307.089 89.5162C304.816 90.0049 302.529 90.4714 300.23 90.9154L300.419 91.8972ZM174.502 93.158C176.805 93.5529 179.12 93.9253 181.448 94.275L181.596 93.2861C179.276 92.9374 176.967 92.5661 174.671 92.1724L174.502 93.158ZM286.553 94.275C288.881 93.9253 291.196 93.5529 293.499 93.1581L293.33 92.1724C291.034 92.5661 288.725 92.9374 286.405 93.2861L286.553 94.275ZM188.404 95.2475C190.725 95.5479 193.058 95.8258 195.401 96.0809L195.51 95.0868C193.173 94.8324 190.847 94.5553 188.532 94.2557L188.404 95.2475ZM272.599 96.0809C274.943 95.8258 277.275 95.5479 279.597 95.2475L279.469 94.2557C277.154 94.5553 274.828 94.8324 272.491 95.0868L272.599 96.0809ZM202.382 96.77C204.713 96.9766 207.055 97.1607 209.405 97.3219L209.474 96.3243C207.13 96.1635 204.795 95.9799 202.471 95.7739L202.382 96.77ZM258.596 97.3219C260.946 97.1607 263.287 96.9767 265.618 96.77L265.53 95.7739C263.206 95.9799 260.871 96.1635 258.527 96.3243L258.596 97.3219ZM216.412 97.7331C218.747 97.8471 221.091 97.9385 223.444 98.0072L223.473 97.0076C221.127 96.9391 218.79 96.8479 216.461 96.7343L216.412 97.7331ZM244.557 98.0072C246.909 97.9385 249.253 97.8471 251.589 97.7331L251.54 96.7343C249.211 96.848 246.874 96.9392 244.528 97.0076L244.557 98.0072ZM230.47 98.1437C231.645 98.1552 232.822 98.1609 234 98.1609C235.179 98.1609 236.356 98.1552 237.531 98.1437L237.521 97.1438C236.35 97.1552 235.176 97.1609 234 97.1609C232.825 97.1609 231.651 97.1552 230.479 97.1438L230.47 98.1437Z" fill="#C4C4C4"/>
<path fill-rule="evenodd" clip-rule="evenodd" d="M796.793 56.8013C796.591 56.6472 796.39 56.4935 796.187 56.34L795.837 56.8013H796.793ZM431.356 56.8013L431.006 56.34C430.803 56.4935 430.601 56.6473 430.4 56.8013H431.356ZM442.528 48.1415C440.561 49.4533 438.624 50.7875 436.717 52.1435L437.297 52.9584C439.195 51.6083 441.124 50.2798 443.083 48.9735L442.528 48.1415ZM790.476 52.1434C788.569 50.7875 786.632 49.4533 784.665 48.1415L784.11 48.9734C786.069 50.2798 787.997 51.6082 789.896 52.9584L790.476 52.1434ZM454.527 40.6325C452.479 41.8344 450.458 43.0589 448.466 44.3057L448.996 45.1534C450.98 43.9117 452.993 42.692 455.033 41.495L454.527 40.6325ZM778.727 44.3056C776.735 43.0589 774.714 41.8343 772.666 40.6325L772.16 41.495C774.2 42.692 776.212 43.9117 778.197 45.1534L778.727 44.3056ZM466.897 33.821C464.792 34.907 462.713 36.0157 460.658 37.1468L461.141 38.0228C463.187 36.8961 465.259 35.7916 467.355 34.7097L466.897 33.821ZM766.535 37.1467C764.48 36.0157 762.4 34.907 760.296 33.821L759.838 34.7097C761.934 35.7916 764.006 36.8961 766.052 38.0227L766.535 37.1467ZM479.622 27.6682C477.47 28.6414 475.341 29.6373 473.234 30.6555L473.669 31.5558C475.768 30.5414 477.89 29.5491 480.034 28.5794L479.622 27.6682ZM753.959 30.6555C751.852 29.6373 749.723 28.6414 747.571 27.6682L747.159 28.5794C749.303 29.549 751.425 30.5414 753.524 31.5558L753.959 30.6555ZM492.651 22.1625C490.448 23.0303 488.265 23.9211 486.103 24.8344L486.492 25.7556C488.647 24.8455 490.822 23.9578 493.018 23.0929L492.651 22.1625ZM741.09 24.8344C738.928 23.9211 736.745 23.0303 734.542 22.1625L734.175 23.0929C736.371 23.9577 738.546 24.8455 740.7 25.7556L741.09 24.8344ZM727.944 19.6547C725.737 18.8458 723.511 18.0596 721.267 17.2965L720.945 18.2433C723.182 19.0039 725.4 19.7874 727.6 20.5936L727.944 19.6547ZM505.926 17.2965C503.682 18.0596 501.456 18.8458 499.249 19.6547L499.593 20.5936C501.792 19.7875 504.011 19.0039 506.248 18.2433L505.926 17.2965ZM519.399 13.0598C517.127 13.7178 514.871 14.3989 512.633 15.1028L512.933 16.0567C515.164 15.3552 517.412 14.6762 519.677 14.0203L519.399 13.0598ZM714.56 15.1027C712.322 14.3989 710.066 13.7178 707.794 13.0597L707.516 14.0203C709.781 14.6762 712.029 15.3551 714.26 16.0567L714.56 15.1027ZM533.056 9.43347C530.761 9.98874 528.481 10.5671 526.217 11.1682L526.474 12.1347C528.731 11.5355 531.003 10.959 533.291 10.4054L533.056 9.43347ZM700.976 11.1681C698.712 10.5671 696.432 9.98874 694.137 9.43344L693.902 10.4054C696.19 10.959 698.462 11.5355 700.719 12.1346L700.976 11.1681ZM546.863 6.40851C544.547 6.8638 542.244 7.34219 539.956 7.84335L540.17 8.82022C542.451 8.32059 544.747 7.84363 547.055 7.38971L546.863 6.40851ZM687.237 7.84335C684.948 7.34219 682.646 6.86377 680.33 6.40848L680.137 7.38971C682.446 7.84363 684.742 8.32056 687.023 8.82019L687.237 7.84335ZM560.789 3.9762C558.452 4.33383 556.127 4.71475 553.814 5.11853L553.986 6.10364C556.292 5.70105 558.61 5.32129 560.941 4.96469L560.789 3.9762ZM673.379 5.11853C671.066 4.71472 668.741 4.33383 666.404 3.9762L666.252 4.96469C668.583 5.32126 670.901 5.70102 673.207 6.10361L673.379 5.11853ZM659.414 2.98102C657.082 2.67368 654.739 2.38937 652.385 2.12845L652.275 3.12238C654.622 3.38254 656.958 3.66602 659.283 3.97244L659.414 2.98102ZM574.808 2.12845C572.454 2.3894 570.111 2.67371 567.779 2.98102L567.91 3.97244C570.235 3.66602 572.571 3.38254 574.918 3.12238L574.808 2.12845ZM645.37 1.42316C643.027 1.21173 640.674 1.02335 638.312 0.858368L638.242 1.85593C640.598 2.02045 642.944 2.20828 645.28 2.41913L645.37 1.42316ZM588.881 0.858368C586.519 1.02335 584.166 1.21173 581.823 1.42319L581.913 2.41913C584.249 2.20828 586.595 2.02045 588.95 1.85596L588.881 0.858368ZM631.272 0.437653C628.925 0.321014 626.569 0.227386 624.205 0.157166L624.175 1.15671C626.533 1.22675 628.882 1.3201 631.222 1.43643L631.272 0.437653ZM602.988 0.157166C600.624 0.227417 598.268 0.321014 595.921 0.437683L595.971 1.43643C598.311 1.3201 600.66 1.22678 603.018 1.15674L602.988 0.157166ZM617.144 0.0174255C615.964 0.0057373 614.781 -0.00012207 613.596 -0.00012207C612.412 -0.00012207 611.229 0.0057373 610.048 0.0174255L610.058 1.0174C611.236 1.00574 612.415 0.999878 613.596 0.999878C614.778 0.999878 615.957 1.00574 617.135 1.0174L617.144 0.0174255Z" fill="#C4C4C4"/>
<circle cx="423" cy="65" r="35" fill="#F5F5F7"/>
<path d="M434.067 56.4331L427.817 50.1831C427.7 50.0659 427.541 50 427.375 50H414.25C412.872 50 411.75 51.1212 411.75 52.5V77.5C411.75 78.8788 412.872 80 414.25 80H431.75C433.128 80 434.25 78.8788 434.25 77.5V56.875C434.25 56.709 434.184 56.5503 434.067 56.4331ZM428 52.1338L432.116 56.25H429.25C428.56 56.25 428 55.6891 428 55V52.1338ZM433 77.5C433 78.189 432.44 78.75 431.75 78.75H414.25C413.56 78.75 413 78.189 413 77.5V52.5C413 51.811 413.56 51.25 414.25 51.25H426.75V55C426.75 56.3788 427.872 57.5 429.25 57.5H433V77.5Z" fill="#333456" fill-opacity="0.8"/>
<path d="M429.875 67.5H416.125C415.78 67.5 415.5 67.7796 415.5 68.125C415.5 68.4705 415.78 68.75 416.125 68.75H429.875C430.221 68.75 430.5 68.4705 430.5 68.125C430.5 67.7796 430.22 67.5 429.875 67.5Z" fill="#333456" fill-opacity="0.8"/>
<path d="M429.875 63.75H416.125C415.78 63.75 415.5 64.0296 415.5 64.375C415.5 64.7205 415.78 65.0001 416.125 65.0001H429.875C430.221 65.0001 430.5 64.7205 430.5 64.375C430.5 64.0296 430.22 63.75 429.875 63.75Z" fill="#333456" fill-opacity="0.8"/>
<path d="M429.875 71.25H416.125C415.78 71.25 415.5 71.5296 415.5 71.875C415.5 72.2205 415.78 72.5 416.125 72.5H429.875C430.221 72.5 430.5 72.2205 430.5 71.875C430.5 71.5296 430.22 71.25 429.875 71.25Z" fill="#333456" fill-opacity="0.8"/>
<path d="M423.625 75H416.125C415.78 75 415.5 75.2796 415.5 75.625C415.5 75.9705 415.78 76.25 416.125 76.25H423.625C423.97 76.25 424.25 75.9705 424.25 75.625C424.25 75.2796 423.97 75 423.625 75Z" fill="#333456" fill-opacity="0.8"/>
<path d="M421.75 60.625C421.75 60.9705 422.03 61.25 422.375 61.25H429.875C430.221 61.25 430.5 60.9705 430.5 60.625C430.5 60.2796 430.221 60 429.875 60H422.375C422.03 60.0001 421.75 60.2796 421.75 60.625Z" fill="#333456" fill-opacity="0.8"/>
<path d="M417.375 60.0001H416.125C415.78 60.0001 415.5 60.2797 415.5 60.6251C415.5 60.9706 415.78 61.2502 416.125 61.2502H416.75C416.75 61.5956 417.03 61.8752 417.375 61.8752C417.721 61.8752 418 61.5956 418 61.2502V61.135C418.726 60.8761 419.25 60.1888 419.25 59.3751C419.25 58.3412 418.409 57.5001 417.375 57.5001C417.031 57.5001 416.75 57.22 416.75 56.8751C416.75 56.5303 417.031 56.2501 417.375 56.2501H418.625C418.97 56.2501 419.25 55.9705 419.25 55.625C419.25 55.2796 418.97 55 418.625 55H418C418 54.6546 417.72 54.375 417.375 54.375C417.029 54.375 416.75 54.6546 416.75 55V55.1152C416.024 55.3741 415.5 56.0613 415.5 56.8751C415.5 57.909 416.341 58.7501 417.375 58.7501C417.719 58.7501 418 59.0302 418 59.3751C418 59.72 417.719 60.0001 417.375 60.0001Z" fill="#333456" fill-opacity="0.8"/>
<circle cx="799" cy="36" r="35" fill="#F5F5F7"/>
<g clip-path="url(#clip0)">
<path d="M794.11 43.9631C794.103 43.9256 794.092 43.8887 794.077 43.8529C794.062 43.8178 794.044 43.7838 794.023 43.7521C794.002 43.7199 793.977 43.69 793.95 43.6631C793.923 43.6361 793.894 43.6115 793.861 43.5904C793.83 43.5693 793.796 43.5512 793.76 43.5365C793.725 43.5219 793.688 43.5102 793.65 43.5031C793.575 43.4879 793.497 43.4879 793.422 43.5031C793.384 43.5102 793.347 43.5219 793.312 43.5365C793.277 43.5512 793.243 43.5693 793.211 43.5904C793.179 43.6115 793.149 43.6361 793.122 43.6631C793.095 43.69 793.07 43.7199 793.049 43.7521C793.028 43.7838 793.01 43.8178 792.995 43.8529C792.981 43.8887 792.969 43.9256 792.962 43.9631C792.954 44.0006 792.95 44.0393 792.95 44.0773C792.95 44.1154 792.954 44.1541 792.962 44.1916C792.969 44.2291 792.981 44.266 792.995 44.3012C793.01 44.3369 793.028 44.3709 793.049 44.4025C793.07 44.4348 793.095 44.4646 793.122 44.4916C793.149 44.5185 793.179 44.5432 793.211 44.5642C793.243 44.5854 793.277 44.6036 793.312 44.6182C793.347 44.6329 793.384 44.6446 793.422 44.6516C793.459 44.6592 793.498 44.6633 793.536 44.6633C793.574 44.6633 793.613 44.6592 793.65 44.6516C793.688 44.6446 793.725 44.6329 793.76 44.6182C793.796 44.6036 793.83 44.5853 793.861 44.5642C793.894 44.5432 793.923 44.5185 793.95 44.4916C793.977 44.4646 794.002 44.4348 794.023 44.4025C794.044 44.3709 794.062 44.3369 794.077 44.3012C794.092 44.266 794.103 44.2291 794.11 44.1916C794.118 44.1541 794.122 44.1154 794.122 44.0773C794.122 44.0393 794.118 44.0006 794.11 43.9631Z" fill="#333456" fill-opacity="0.7"/>
<path d="M810.953 44.1437C810.95 44.1378 810.948 44.132 810.946 44.1262C810.406 42.8643 809.142 42.3979 807.645 42.9091L803.563 44.038C803.327 43.3233 802.738 42.7151 801.905 42.4062C801.9 42.4043 801.895 42.4024 801.89 42.4007L797.403 40.8777C797.029 40.3949 795.859 39.1597 793.669 39.1597C792.138 39.1597 790.784 40.2098 790.009 41.3544H784.586C784.262 41.3544 784 41.6167 784 41.9404V49.3277C784 49.6513 784.262 49.9136 784.586 49.9136H788.07C788.393 49.9136 788.656 49.6513 788.656 49.3277V48.8218H790.289C790.613 48.8218 790.875 48.5595 790.875 48.2358V48.0672C791.828 48.1503 792.141 48.3309 793.016 48.8353C793.688 49.2232 794.705 49.8094 796.536 50.6326C796.544 50.6364 796.553 50.6401 796.562 50.6435C796.913 50.7817 797.6 50.9988 798.447 50.9988C799.036 50.9988 799.703 50.8935 800.388 50.5832L809.411 47.3525C809.427 47.3468 809.443 47.3404 809.458 47.3332C810.321 46.9365 811.606 45.8183 810.953 44.1437ZM787.484 48.7417H785.172V42.5262H787.484V48.7417ZM789.704 47.6498H788.656V42.5262H789.704V47.6498ZM808.99 46.2584L799.971 49.4876C799.963 49.4904 799.952 49.4946 799.945 49.4978C799.937 49.501 799.929 49.5044 799.921 49.508C798.665 50.0852 797.471 49.7396 797.003 49.5577C795.235 48.762 794.291 48.2177 793.601 47.82C792.642 47.2671 792.18 47.0006 790.875 46.8929V42.1736C791.431 41.2633 792.508 40.3315 793.669 40.3315C795.66 40.3315 796.504 41.6267 796.537 41.679C796.609 41.7953 796.719 41.883 796.848 41.9269L801.505 43.5074C802.249 43.7866 802.642 44.4235 802.461 45.0587C802.378 45.352 802.185 45.5953 801.919 45.7437C801.655 45.8908 801.349 45.9272 801.058 45.8467L795.809 44.1831C795.5 44.0853 795.171 44.2562 795.073 44.5646C794.975 44.8731 795.146 45.2024 795.455 45.3002L800.714 46.9667C800.719 46.9685 800.725 46.9702 800.73 46.9717C800.94 47.0314 801.154 47.061 801.366 47.061C801.755 47.061 802.14 46.9619 802.489 46.7674C803.029 46.4666 803.419 45.9736 803.588 45.3792C803.602 45.3317 803.614 45.2842 803.624 45.2368L808.023 44.018C808.659 43.801 809.493 43.7228 809.864 44.5781C810.249 45.5822 809.25 46.1346 808.99 46.2584Z" fill="#333456" fill-opacity="0.7"/>
<path d="M805.039 28.7077C805.031 28.6702 805.02 28.6333 805.005 28.5976C804.99 28.5624 804.972 28.5284 804.951 28.4968C804.93 28.4646 804.905 28.4347 804.878 28.4077C804.851 28.3808 804.821 28.3562 804.789 28.3351C804.757 28.314 804.723 28.2958 804.688 28.2812C804.653 28.2665 804.616 28.2548 804.579 28.2478C804.503 28.2325 804.425 28.2325 804.35 28.2478C804.312 28.2548 804.275 28.2665 804.24 28.2812C804.204 28.2958 804.17 28.314 804.139 28.3351C804.106 28.3562 804.077 28.3808 804.05 28.4077C804.023 28.4347 803.998 28.4646 803.977 28.4968C803.956 28.5284 803.938 28.5624 803.923 28.5976C803.908 28.6333 803.897 28.6702 803.89 28.7077C803.882 28.7452 803.878 28.7839 803.878 28.822C803.878 28.8601 803.882 28.8987 803.89 28.9362C803.897 28.9737 803.908 29.0106 803.923 29.0458C803.938 29.0815 803.956 29.1155 803.977 29.1472C803.998 29.1794 804.023 29.2093 804.05 29.2362C804.077 29.2632 804.106 29.2878 804.139 29.3089C804.17 29.33 804.204 29.3481 804.24 29.3628C804.275 29.3774 804.312 29.3886 804.35 29.3962C804.387 29.4038 804.426 29.4079 804.464 29.4079C804.502 29.4079 804.541 29.4038 804.579 29.3962C804.616 29.3886 804.653 29.3774 804.688 29.3628C804.723 29.3481 804.757 29.33 804.789 29.3089C804.821 29.2878 804.851 29.2632 804.878 29.2362C804.905 29.2093 804.93 29.1794 804.951 29.1472C804.972 29.1155 804.99 29.0815 805.005 29.0458C805.02 29.0106 805.031 28.9737 805.039 28.9362C805.046 28.8987 805.05 28.8601 805.05 28.822C805.05 28.7839 805.046 28.7452 805.039 28.7077Z" fill="#333456" fill-opacity="0.7"/>
<path d="M813.414 22.9859H809.93C809.607 22.9859 809.344 23.2482 809.344 23.5718V24.0777H807.711C807.387 24.0777 807.125 24.3401 807.125 24.6637V24.8323C806.172 24.7492 805.859 24.5686 804.984 24.0642C804.312 23.6763 803.295 23.0901 801.464 22.2669C801.456 22.263 801.447 22.2595 801.438 22.2561C800.842 22.0216 799.281 21.5602 797.612 22.3162L795.255 23.1605L793.267 21.1731C793.038 20.9443 792.667 20.9443 792.438 21.1731L785.914 27.6979C785.702 27.909 785.662 28.275 785.914 28.5266L797.063 39.6762C797.242 39.8547 797.659 39.9087 797.892 39.6762L803.849 33.7193C804.004 33.7327 804.164 33.7399 804.331 33.7399C805.862 33.7399 807.216 32.6898 807.991 31.5452H813.414C813.738 31.5452 814 31.2829 814 30.9593V23.5718C814 23.2482 813.738 22.9859 813.414 22.9859ZM792.853 22.416L794.188 23.7515C793.791 23.997 793.332 24.1284 792.853 24.1284C792.373 24.1284 791.914 23.9971 791.517 23.7515L792.853 22.416ZM788.492 29.4477L787.157 28.1122L788.492 26.7767C788.738 27.1737 788.869 27.6327 788.869 28.1122C788.869 28.5917 788.738 29.0507 788.492 29.4477ZM797.478 38.4332L796.142 37.098C796.958 36.5949 797.997 36.5949 798.813 37.098L797.478 38.4332ZM799.657 36.2539C798.362 35.3146 796.593 35.3146 795.298 36.2539L789.336 30.2918C789.794 29.6625 790.041 28.9066 790.041 28.1122C790.041 27.3177 789.794 26.5619 789.336 25.9326L790.673 24.5957C791.302 25.0533 792.058 25.3003 792.853 25.3003C793.647 25.3003 794.403 25.0533 795.032 24.5957L796.3 25.863C796.026 25.9034 795.76 25.9935 795.511 26.1321C795.091 26.3661 794.761 26.7166 794.556 27.1406C793.895 27.263 793.283 27.5829 792.803 28.0629C791.501 29.3652 791.501 31.4841 792.803 32.7864C793.455 33.4375 794.31 33.7631 795.165 33.7631C796.02 33.7631 796.876 33.4376 797.527 32.7864C797.951 32.3628 798.247 31.8421 798.396 31.2747L800.374 31.9461C800.152 32.9778 800.38 34.0632 800.995 34.9158L799.657 36.2539ZM796.095 30.4933C796.1 30.4952 796.105 30.4971 796.11 30.4989L797.282 30.8965C797.193 31.2958 796.993 31.663 796.698 31.9578C795.853 32.8031 794.477 32.8032 793.632 31.9578C792.787 31.1124 792.787 29.737 793.632 28.8916C793.836 28.6875 794.077 28.5281 794.339 28.42C794.447 29.3201 795.095 30.1224 796.095 30.4933ZM801.839 34.0714C801.613 33.7029 801.485 33.2822 801.465 32.8529C801.746 33.0558 802.089 33.2546 802.498 33.4124L801.839 34.0714ZM807.125 30.7257C806.569 31.6361 805.492 32.5679 804.331 32.5679C804.114 32.5679 803.91 32.5524 803.72 32.5249C803.719 32.5248 803.718 32.5247 803.717 32.5246C802.452 32.3407 801.771 31.6216 801.547 31.3368C801.535 31.3192 801.484 31.2526 801.477 31.2415C801.408 31.1195 801.296 31.0215 801.154 30.973L796.495 29.3918C795.752 29.1128 795.359 28.4762 795.539 27.8413C795.539 27.8409 795.539 27.8405 795.539 27.84C795.539 27.8396 795.539 27.839 795.539 27.8386C795.623 27.5462 795.815 27.3037 796.081 27.1556C796.345 27.0085 796.651 26.972 796.942 27.0527L802.191 28.7162C802.5 28.8141 802.829 28.6431 802.927 28.3346C803.025 28.0261 802.854 27.6968 802.545 27.599L798.37 26.276L798.334 26.2396C798.333 26.2392 798.333 26.2388 798.333 26.2384L796.171 24.0769L798.029 23.4116C798.035 23.4094 798.043 23.4065 798.049 23.404C798.051 23.4033 798.054 23.4022 798.055 23.4015C798.063 23.3983 798.071 23.3949 798.079 23.3913C799.335 22.814 800.529 23.1596 800.997 23.3416C802.765 24.1373 803.709 24.6816 804.399 25.0793C805.358 25.6322 805.82 25.8987 807.125 26.0064V30.7257ZM809.344 30.3732H808.297V25.2496H809.344V30.3732ZM812.828 30.3732H810.516V24.1578H812.828V30.3732Z" fill="#333456" fill-opacity="0.7"/>
</g>
<circle cx="35" cy="36" r="35" fill="#F5F5F7"/>
<path d="M45.2704 21H24.7299C24.3999 21 24.1323 21.2675 24.1323 21.5976V50.4024C24.1323 50.7325 24.3999 51 24.7299 51H40.3488C40.5073 51 40.6593 50.937 40.7714 50.825L45.6931 45.9032C45.8051 45.7912 45.8681 45.6392 45.8681 45.4806V21.5976C45.8681 21.2675 45.6005 21 45.2704 21ZM40.9453 48.9608L40.9427 46.0746L43.8288 46.0772L40.9453 48.9608ZM44.6729 44.8828L40.345 44.8788C40.3449 44.8788 40.3447 44.8788 40.3445 44.8788C40.186 44.8788 40.034 44.9418 39.9219 45.0538C39.8097 45.1661 39.7467 45.3183 39.7469 45.477L39.7508 49.8048H25.3275V22.1952H44.6729V44.8828Z" fill="#333456" fill-opacity="0.7"/>
<path d="M31.3811 26.0271C31.1477 25.7937 30.7693 25.7937 30.5359 26.0271L28.7772 27.7858L28.3405 27.3491C28.1071 27.1157 27.7287 27.1157 27.4954 27.3491C27.262 27.5824 27.2619 27.9608 27.4954 28.1942L28.3546 29.0535C28.4666 29.1655 28.6187 29.2285 28.7772 29.2285C28.9357 29.2285 29.0877 29.1655 29.1997 29.0535L31.381 26.8722C31.6144 26.6389 31.6144 26.2605 31.3811 26.0271Z" fill="#333456" fill-opacity="0.7"/>
<path d="M42.082 27.2183H41.8725C41.5424 27.2183 41.2749 27.4858 41.2749 27.8159C41.2749 28.1459 41.5424 28.4135 41.8725 28.4135H42.082C42.4121 28.4135 42.6796 28.1459 42.6796 27.8159C42.6796 27.4858 42.4121 27.2183 42.082 27.2183Z" fill="#333456" fill-opacity="0.7"/>
<path d="M39.9603 27.2183H33.269C32.9389 27.2183 32.6714 27.4858 32.6714 27.8159C32.6714 28.1459 32.9389 28.4135 33.269 28.4135H39.9603C40.2903 28.4135 40.5579 28.1459 40.5579 27.8159C40.5579 27.4858 40.2903 27.2183 39.9603 27.2183Z" fill="#333456" fill-opacity="0.7"/>
<path d="M31.3811 31.8122C31.1477 31.5789 30.7693 31.5789 30.5359 31.8123L28.7772 33.571L28.3405 33.1342C28.1071 32.9008 27.7287 32.9008 27.4954 33.1342C27.262 33.3676 27.2619 33.746 27.4954 33.9794L28.3546 34.8387C28.4666 34.9507 28.6187 35.0137 28.7772 35.0137C28.9357 35.0137 29.0877 34.9507 29.1997 34.8387L31.381 32.6574C31.6144 32.4241 31.6144 32.0457 31.3811 31.8122Z" fill="#333456" fill-opacity="0.7"/>
<path d="M42.0823 33.0034H33.269C32.9389 33.0034 32.6714 33.271 32.6714 33.601C32.6714 33.9311 32.9389 34.1986 33.269 34.1986H42.0823C42.4123 34.1986 42.6799 33.9311 42.6799 33.601C42.6799 33.271 42.4123 33.0034 42.0823 33.0034Z" fill="#333456" fill-opacity="0.7"/>
<path d="M31.3811 37.5793C31.1477 37.3459 30.7693 37.3459 30.5359 37.5794L28.7772 39.3381L28.3405 38.9013C28.1071 38.6679 27.7287 38.6679 27.4954 38.9013C27.262 39.1347 27.2619 39.5131 27.4954 39.7465L28.3546 40.6058C28.4666 40.7178 28.6187 40.7808 28.7772 40.7808C28.9357 40.7808 29.0877 40.7178 29.1997 40.6058L31.381 38.4245C31.6144 38.1912 31.6144 37.8128 31.3811 37.5793Z" fill="#333456" fill-opacity="0.7"/>
<path d="M42.0822 38.7705H33.269C32.9389 38.7705 32.6714 39.038 32.6714 39.3681C32.6714 39.6982 32.9389 39.9657 33.269 39.9657H42.0823C42.4123 39.9657 42.6798 39.6982 42.6798 39.3681C42.6798 39.0381 42.4123 38.7705 42.0822 38.7705Z" fill="#333456" fill-opacity="0.7"/>
<defs>
<clipPath id="clip0">
<rect width="30" height="30" fill="white" transform="translate(784 21)"/>
</clipPath>
</defs>
</svg>
