<svg width="180" height="54" viewBox="0 0 180 54" fill="none" xmlns="http://www.w3.org/2000/svg">
<path d="M178.806 47.037C178.806 47.7083 178.674 48.3729 178.417 48.993C178.16 49.6131 177.783 50.1764 177.308 50.6508C176.833 51.1252 176.269 51.5014 175.648 51.7578C175.028 52.0142 174.363 52.1458 173.691 52.1451H6.30894C4.95229 52.1465 3.65063 51.6092 2.69021 50.6512C1.7298 49.6933 1.18927 48.3933 1.1875 47.037V6.30176C1.18927 4.94486 1.72958 3.64412 2.68981 2.68515C3.65003 1.72618 4.95168 1.18736 6.30894 1.18701H173.69C174.362 1.18701 175.027 1.31932 175.648 1.57637C176.268 1.83343 176.832 2.2102 177.307 2.68517C177.782 3.16013 178.159 3.72399 178.416 4.34453C178.673 4.96507 178.805 5.63014 178.805 6.30176L178.806 47.037Z" fill="white"/>
<path d="M173.691 53.3334H6.30875C4.63752 53.333 3.03468 52.6699 1.85195 51.4895C0.66921 50.309 0.00317989 48.7078 0 47.037L0 6.30307C0.00247234 4.63146 0.668063 3.02908 1.85076 1.84744C3.03346 0.665808 4.63669 0.0014109 6.30875 0L173.69 0C175.362 0.00211491 176.965 0.666739 178.147 1.84822C179.33 3.0297 179.995 4.63168 179.999 6.30307V47.037C180.001 50.5099 177.166 53.3334 173.691 53.3334Z" fill="#A6A6A6"/>
<path d="M173.691 0H84.0361L119.152 53.3334H173.691C175.363 53.332 176.966 52.6679 178.148 51.4869C179.331 50.3058 179.997 48.7041 180 47.033V6.30307C179.997 4.63157 179.331 3.02939 178.149 1.84783C176.966 0.666274 175.363 0.00176304 173.691 0V0Z" fill="url(#paint0_linear)"/>
<path d="M178.806 47.037C178.806 47.7083 178.674 48.3729 178.417 48.993C178.16 49.6131 177.783 50.1764 177.308 50.6508C176.833 51.1252 176.269 51.5014 175.648 51.7578C175.028 52.0142 174.363 52.1458 173.691 52.1451H6.30894C4.95229 52.1465 3.65063 51.6092 2.69021 50.6512C1.7298 49.6933 1.18927 48.3933 1.1875 47.037V6.30176C1.18927 4.94486 1.72958 3.64412 2.68981 2.68515C3.65003 1.72618 4.95168 1.18736 6.30894 1.18701H173.69C174.362 1.18701 175.027 1.31932 175.648 1.57637C176.268 1.83343 176.832 2.2102 177.307 2.68517C177.782 3.16013 178.159 3.72399 178.416 4.34453C178.673 4.96507 178.805 5.63014 178.805 6.30176L178.806 47.037Z" fill="black"/>
<path d="M40.1922 26.3858C40.1536 22.0873 43.7128 19.9961 43.8756 19.8987C41.8598 16.9606 38.7355 16.5591 37.6375 16.5271C35.0134 16.251 32.4681 18.0969 31.1313 18.0969C29.7679 18.0969 27.7095 16.5538 25.491 16.5991C22.6361 16.6431 19.9653 18.2956 18.5005 20.8616C15.4775 26.0938 17.7321 33.7825 20.6283 38.0117C22.0771 40.0843 23.77 42.3956 25.9859 42.3142C28.1537 42.2262 28.9635 40.9338 31.5796 40.9338C34.1717 40.9338 34.9321 42.3142 37.192 42.2622C39.5185 42.2262 40.9833 40.1816 42.3814 38.0917C44.0557 35.7191 44.728 33.3798 44.7547 33.2597C44.7013 33.2411 40.2376 31.5366 40.1922 26.3858ZM35.9233 13.745C37.0892 12.2873 37.887 10.3041 37.6655 8.2915C35.978 8.36619 33.8675 9.45849 32.6522 10.8842C31.5769 12.1406 30.6164 14.1998 30.8645 16.1363C32.7602 16.2777 34.7066 15.1801 35.9233 13.745Z" fill="white"/>
<path d="M71.5921 42.017H68.5625L66.9029 36.8036H61.1345L59.5536 42.017H56.604L62.3204 24.2681H65.8503L71.5921 42.017ZM66.4026 34.6163L64.9018 29.9817C64.7431 29.5082 64.4442 28.3932 64.0067 26.6381H63.9533C63.7772 27.393 63.4957 28.5079 63.1102 29.9817L61.6347 34.6163H66.4026ZM86.264 35.4605C86.264 37.6371 85.6731 39.3576 84.4897 40.6206C83.4305 41.7449 82.1138 42.3064 80.5436 42.3064C78.848 42.3064 77.6287 41.7023 76.8883 40.4913V47.2064H74.0441V33.4253C74.0441 32.0583 74.0081 30.6565 73.9387 29.2188H76.4401L76.5988 31.2474H76.6522C77.6007 29.7189 79.0401 28.9547 80.9718 28.9547C82.482 28.9547 83.7427 29.5509 84.7512 30.7446C85.7584 31.9409 86.264 33.512 86.264 35.4605ZM83.3665 35.5646C83.3665 34.3189 83.0863 33.2919 82.5234 32.4824C81.9084 31.6408 81.0826 31.2194 80.0473 31.2194C79.3456 31.2194 78.708 31.4541 78.1383 31.9169C77.5673 32.3837 77.1938 32.9932 77.019 33.7481C76.941 34.0304 76.8967 34.3209 76.887 34.6136V36.7489C76.887 37.6785 77.1725 38.464 77.7434 39.1069C78.3144 39.747 79.0561 40.0685 79.9686 40.0685C81.0399 40.0685 81.8737 39.6537 82.47 38.8308C83.0676 38.0052 83.3665 36.9169 83.3665 35.5646ZM100.988 35.4605C100.988 37.6371 100.397 39.3576 99.2137 40.6206C98.1531 41.7449 96.8378 42.3064 95.2662 42.3064C93.5707 42.3064 92.3513 41.7023 91.6109 40.4913V47.2064H88.7667V33.4253C88.7667 32.0583 88.7307 30.6565 88.6613 29.2188H91.1627L91.3214 31.2474H91.3748C92.322 29.7189 93.7614 28.9547 95.6945 28.9547C97.2033 28.9547 98.464 29.5509 99.4752 30.7446C100.481 31.9409 100.988 33.512 100.988 35.4605ZM98.0891 35.5646C98.0891 34.3189 97.8076 33.2919 97.2446 32.4824C96.6296 31.6408 95.8065 31.2194 94.7713 31.2194C94.0696 31.2194 93.4319 31.4541 92.8596 31.9169C92.2886 32.3837 91.9164 32.9932 91.7417 33.7481C91.655 34.1002 91.6083 34.3869 91.6083 34.6136V36.7489C91.6083 37.6785 91.8951 38.464 92.4634 39.1069C93.0344 39.7457 93.7761 40.0685 94.6913 40.0685C95.7638 40.0685 96.5976 39.6537 97.1926 38.8308C97.7903 38.0052 98.0891 36.9169 98.0891 35.5646ZM117.45 37.0383C117.45 38.5494 116.922 39.7777 115.872 40.726C114.717 41.7609 113.104 42.2797 111.036 42.2797C109.126 42.2797 107.594 41.9116 106.439 41.1741L107.097 38.8041C108.344 39.543 109.714 39.9111 111.206 39.9111C112.278 39.9111 113.112 39.6684 113.707 39.1869C114.303 38.7041 114.605 38.0586 114.605 37.253C114.605 36.5315 114.355 35.9273 113.866 35.4352C113.373 34.9444 112.56 34.4869 111.416 34.0668C108.308 32.9078 106.752 31.2127 106.752 28.9827C106.752 27.5263 107.302 26.334 108.399 25.4018C109.495 24.4708 110.949 24.0054 112.758 24.0054C114.374 24.0054 115.72 24.2868 116.789 24.8483L116.075 27.1662C115.069 26.6221 113.934 26.35 112.664 26.35C111.66 26.35 110.873 26.5968 110.31 27.0876C109.837 27.5263 109.597 28.0612 109.597 28.696C109.597 29.3962 109.87 29.9777 110.414 30.4338C110.887 30.8539 111.748 31.3114 112.994 31.8022C114.523 32.4184 115.647 33.1359 116.366 33.9601C117.09 34.7843 117.45 35.8126 117.45 37.0383ZM126.878 31.3527H123.743V37.5664C123.743 39.1469 124.295 39.9351 125.403 39.9351C125.911 39.9351 126.332 39.8924 126.666 39.8031L126.745 41.9623C126.184 42.1717 125.447 42.2771 124.533 42.2771C123.409 42.2771 122.532 41.9343 121.898 41.2488C121.267 40.5633 120.949 39.415 120.949 37.7985V31.3474H119.082V29.2135H120.949V26.8702L123.743 26.0273V29.2135H126.878V31.3527ZM140.995 35.5125C140.995 37.4798 140.432 39.0949 139.309 40.3579C138.133 41.6582 136.57 42.3064 134.621 42.3064C132.74 42.3064 131.244 41.6836 130.129 40.4392C129.014 39.1922 128.456 37.6211 128.456 35.7259C128.456 33.7427 129.032 32.1183 130.181 30.8553C131.332 29.5909 132.883 28.9587 134.832 28.9587C136.71 28.9587 138.219 29.5829 139.361 30.8286C140.452 32.0369 140.995 33.5974 140.995 35.5125ZM138.047 35.5779C138.047 34.4056 137.793 33.4 137.285 32.5584C136.689 31.5421 135.835 31.034 134.729 31.034C133.59 31.034 132.716 31.5421 132.121 32.5584C131.611 33.4 131.358 34.4229 131.358 35.6312C131.358 36.8049 131.611 37.8132 132.121 38.6521C132.736 39.6684 133.594 40.1765 134.705 40.1765C135.792 40.1765 136.645 39.6577 137.261 38.6267C137.784 37.7652 138.047 36.7529 138.047 35.5779ZM150.244 31.7195C149.948 31.6661 149.648 31.6398 149.347 31.6408C148.347 31.6408 147.573 32.0169 147.029 32.7745C146.557 33.4413 146.319 34.2842 146.319 35.3018V42.017H143.475V33.2493C143.478 31.9058 143.45 30.5624 143.392 29.2201H145.87L145.974 31.6688H146.052C146.354 30.8273 146.826 30.1484 147.474 29.6403C148.068 29.1962 148.789 28.9558 149.53 28.9547C149.793 28.9547 150.031 28.9734 150.241 29.0068L150.244 31.7195ZM162.964 35.0124C162.971 35.4447 162.937 35.8766 162.86 36.3021H154.328C154.36 37.5664 154.773 38.5347 155.566 39.2016C156.285 39.7964 157.214 40.0951 158.356 40.0951C159.62 40.0951 160.772 39.8951 161.809 39.491L162.254 41.4635C161.043 41.9917 159.613 42.2544 157.963 42.2544C155.978 42.2544 154.42 41.6702 153.286 40.5046C152.154 39.3376 151.587 37.7692 151.587 35.8046C151.587 33.8761 152.114 32.269 153.17 30.9873C154.274 29.6189 155.767 28.9347 157.645 28.9347C159.49 28.9347 160.887 29.6189 161.836 30.9873C162.587 32.0716 162.964 33.416 162.964 35.0124ZM160.252 34.2749C160.272 33.4306 160.085 32.7038 159.7 32.0889C159.207 31.2967 158.45 30.9019 157.435 30.9019C156.505 30.9019 155.747 31.2874 155.171 32.0609C154.697 32.6758 154.416 33.4146 154.329 34.2722L160.252 34.2749Z" fill="white"/>
<path d="M60.3141 17.993C59.5231 17.993 58.8387 17.9543 58.269 17.8889V9.3079C59.0658 9.18486 59.8709 9.12422 60.677 9.12652C63.9388 9.12652 65.4409 10.731 65.4409 13.3464C65.4409 16.3632 63.6666 17.993 60.3141 17.993ZM60.7917 10.2268C60.3515 10.2268 59.9766 10.2535 59.6658 10.3175V16.8406C59.8339 16.8673 60.1567 16.8793 60.6103 16.8793C62.7475 16.8793 63.9641 15.663 63.9641 13.385C63.9641 11.3538 62.8635 10.2268 60.7917 10.2268ZM70.1221 18.0583C68.2838 18.0583 67.0925 16.6859 67.0925 14.8228C67.0925 12.8809 68.3091 11.4965 70.2262 11.4965C72.0378 11.4965 73.2558 12.8035 73.2558 14.7201C73.2558 16.6859 72.0005 18.0583 70.1221 18.0583ZM70.1755 12.5181C69.1656 12.5181 68.5186 13.4624 68.5186 14.7827C68.5186 16.0778 69.1789 17.022 70.1621 17.022C71.1453 17.022 71.8057 16.0124 71.8057 14.7561C71.8057 13.4757 71.1587 12.5181 70.1755 12.5181ZM83.7388 11.6259L81.7711 17.9156H80.4891L79.6739 15.1842C79.4713 14.5161 79.3025 13.8381 79.1683 13.153H79.1417C79.0389 13.8385 78.8442 14.5253 78.6374 15.1842L77.7703 17.9156H76.4749L74.6232 11.6259H76.06L76.7724 14.616C76.9405 15.3282 77.0819 16.0004 77.1993 16.6353H77.226C77.3287 16.1058 77.4968 15.4443 77.7436 14.6294L78.6374 11.6272H79.7767L80.6318 14.5654C80.8386 15.2775 81.0067 15.9764 81.1374 16.6366H81.1748C81.2655 15.9897 81.4082 15.3029 81.6017 14.5654L82.3661 11.6272L83.7388 11.6259ZM90.9827 17.9156H89.5846V14.3039C89.5846 13.1916 89.1577 12.6342 88.316 12.6342C87.4875 12.6342 86.9179 13.3464 86.9179 14.1746V17.9156H85.5198V13.4237C85.5198 12.8676 85.5064 12.2714 85.4678 11.6245H86.6977L86.7631 12.5955H86.8018C87.178 11.9233 87.9411 11.4965 88.7962 11.4965C90.1169 11.4965 90.9841 12.5061 90.9841 14.1492L90.9827 17.9156ZM94.8381 17.9156H93.4387V8.73975H94.8381V17.9156ZM99.9356 18.0583C98.0986 18.0583 96.9059 16.6859 96.9059 14.8228C96.9059 12.8809 98.1226 11.4965 100.038 11.4965C101.851 11.4965 103.068 12.8035 103.068 14.7201C103.069 16.6859 101.813 18.0583 99.9356 18.0583ZM99.9876 12.5181C98.9777 12.5181 98.3307 13.4624 98.3307 14.7827C98.3307 16.0778 98.9924 17.022 99.9729 17.022C100.957 17.022 101.616 16.0124 101.616 14.7561C101.618 13.4757 100.972 12.5181 99.9876 12.5181ZM108.58 17.9156L108.479 17.1914H108.442C108.015 17.7742 107.392 18.0583 106.602 18.0583C105.475 18.0583 104.674 17.2688 104.674 16.2071C104.674 14.6547 106.02 13.8518 108.351 13.8518V13.7358C108.351 12.9076 107.912 12.4928 107.045 12.4928C106.424 12.4928 105.88 12.6488 105.401 12.9596L105.117 12.0407C105.699 11.6779 106.424 11.4965 107.277 11.4965C108.92 11.4965 109.75 12.3634 109.75 14.0986V16.4152C109.75 17.05 109.778 17.5422 109.841 17.9169L108.58 17.9156ZM108.388 14.7827C106.835 14.7827 106.056 15.1588 106.056 16.0511C106.056 16.7113 106.458 17.034 107.015 17.034C107.726 17.034 108.388 16.4912 108.388 15.7537V14.7827ZM116.539 17.9156L116.474 16.906H116.435C116.034 17.6689 115.359 18.0583 114.415 18.0583C112.899 18.0583 111.775 16.7246 111.775 14.8481C111.775 12.8809 112.94 11.4952 114.53 11.4952C115.372 11.4952 115.968 11.7793 116.304 12.3501H116.332V8.73975H117.732V16.2205C117.732 16.8286 117.747 17.3981 117.784 17.9156H116.539ZM116.332 14.2146C116.332 13.3343 115.749 12.5835 114.86 12.5835C113.823 12.5835 113.189 13.5024 113.189 14.7961C113.189 16.0644 113.847 16.9327 114.832 16.9327C115.711 16.9327 116.332 16.1685 116.332 15.2629V14.2146ZM126.605 18.0583C124.768 18.0583 123.576 16.6859 123.576 14.8228C123.576 12.8809 124.793 11.4965 126.709 11.4965C128.522 11.4965 129.738 12.8035 129.738 14.7201C129.74 16.6859 128.484 18.0583 126.605 18.0583ZM126.657 12.5181C125.648 12.5181 125.001 13.4624 125.001 14.7827C125.001 16.0778 125.661 17.022 126.643 17.022C127.628 17.022 128.287 16.0124 128.287 14.7561C128.29 13.4757 127.643 12.5181 126.657 12.5181ZM137.257 17.9156H135.858V14.3039C135.858 13.1916 135.431 12.6342 134.589 12.6342C133.761 12.6342 133.192 13.3464 133.192 14.1746V17.9156H131.793V13.4237C131.793 12.8676 131.779 12.2714 131.741 11.6245H132.971L133.036 12.5955H133.075C133.45 11.9233 134.214 11.4952 135.068 11.4952C136.389 11.4952 137.257 12.5048 137.257 14.1479V17.9156ZM146.664 12.6742H145.125V15.7283C145.125 16.5059 145.395 16.894 145.939 16.894C146.186 16.894 146.393 16.8673 146.559 16.8286L146.598 17.8903C146.327 17.9943 145.964 18.0463 145.514 18.0463C144.412 18.0463 143.753 17.4381 143.753 15.8457V12.6742H142.835V11.6259H143.753V10.4736L145.125 10.0588V11.6245H146.664V12.6742ZM154.065 17.9156H152.668V14.3306C152.668 13.205 152.243 12.6355 151.399 12.6355C150.675 12.6355 150 13.1276 150 14.1239V17.9156H148.603V8.73975H150V12.5181H150.028C150.468 11.8326 151.106 11.4952 151.92 11.4952C153.251 11.4952 154.065 12.5301 154.065 14.1746V17.9156ZM161.648 15.1068H157.452C157.479 16.2978 158.267 16.97 159.434 16.97C160.055 16.97 160.626 16.866 161.13 16.6726L161.347 17.6435C160.752 17.9023 160.052 18.0316 159.237 18.0316C157.269 18.0316 156.105 16.7886 156.105 14.8614C156.105 12.9329 157.297 11.4832 159.08 11.4832C160.687 11.4832 161.696 12.6742 161.696 14.4733C161.705 14.6857 161.689 14.8983 161.648 15.1068ZM160.366 14.1106C160.366 13.1396 159.876 12.4541 158.982 12.4541C158.179 12.4541 157.544 13.153 157.453 14.1106H160.366Z" fill="white"/>
<defs>
<linearGradient id="paint0_linear" x1="132.017" y1="53.475" x2="132.017" y2="-138.871" gradientUnits="userSpaceOnUse">
<stop stop-color="#1A1A1A" stop-opacity="0.1"/>
<stop offset="0.123" stop-color="#212121" stop-opacity="0.151"/>
<stop offset="0.308" stop-color="#353535" stop-opacity="0.227"/>
<stop offset="0.532" stop-color="#575757" stop-opacity="0.318"/>
<stop offset="0.783" stop-color="#858585" stop-opacity="0.421"/>
<stop offset="1" stop-color="#B3B3B3" stop-opacity="0.51"/>
</linearGradient>
</defs>
</svg>
