<svg width="12" height="13" viewBox="0 0 12 13" fill="none" xmlns="http://www.w3.org/2000/svg">
<path d="M10.5123 9.0001H10.191C9.96576 9.0003 9.7436 9.05142 9.54201 9.1495C9.24871 9.29165 8.90404 9.29165 8.61073 9.1495C8.49373 9.09352 8.36955 9.05315 8.2415 9.0295L8.6413 6.0001H9.07637C9.18966 6.0001 9.2815 5.91055 9.2815 5.8001V5.0001C9.2815 4.88965 9.18966 4.8001 9.07637 4.8001H8.25586V4.2001C8.25586 4.14705 8.23422 4.0962 8.19576 4.0587L7.23022 3.1173V2.4961L7.54119 2.2537L8.07227 3.2895L8.43945 3.1107L7.86878 1.9981L8.12253 1.8001H8.87124C8.98453 1.8001 9.07637 1.71055 9.07637 1.6001V0.800098C9.07637 0.689648 8.98453 0.600098 8.87124 0.600098H6.81996C5.80089 0.601298 4.97504 1.4065 4.97381 2.4001C4.97381 2.51055 5.06565 2.6001 5.17894 2.6001H5.58919V3.1173L5.03391 3.6587C4.99545 3.6962 4.97381 3.74705 4.97381 3.8001V4.8001H4.56355V3.2001C4.56324 3.17532 4.55817 3.15085 4.54858 3.1279C4.54483 3.12012 4.54058 3.11257 4.53586 3.1053C4.53094 3.09482 4.52517 3.08472 4.51863 3.0751L3.74304 2.1301V0.800098C3.74304 0.689648 3.65119 0.600098 3.53791 0.600098H2.30714C2.19386 0.600098 2.10201 0.689648 2.10201 0.800098V2.1301L1.32642 3.0751C1.31989 3.08472 1.31412 3.09482 1.30919 3.1053C1.30447 3.11257 1.30022 3.12012 1.29647 3.1279C1.28689 3.15085 1.28181 3.17532 1.2815 3.2001V4.8001H0.460988C0.347706 4.8001 0.255859 4.88965 0.255859 5.0001V5.8001C0.255859 5.91055 0.347706 6.0001 0.460988 6.0001H0.896065L1.6934 12.0257C1.7066 12.1254 1.79373 12.2001 1.89689 12.2001H6.7256C6.95824 12.4543 7.29101 12.5998 7.64048 12.6001H7.96171C8.18699 12.5999 8.40914 12.5488 8.61073 12.4507C8.90404 12.3085 9.24871 12.3085 9.54201 12.4507C9.7436 12.5488 9.96576 12.5999 10.191 12.6001H10.5123C11.1917 12.5994 11.7424 12.0626 11.743 11.4001V10.2001C11.7424 9.53762 11.1917 9.00075 10.5123 9.0001ZM8.25586 1.0001H8.66612V1.4001H8.25586V1.0001ZM8.87124 5.2001V5.6001H5.99945V5.2001H8.87124ZM5.39863 2.2001C5.50153 1.51172 6.10648 1.00097 6.81996 1.0001H7.8456V1.5041L6.95309 2.2001H5.39863ZM6.81996 2.6001V3.0001H5.99945V2.6001H6.81996ZM5.38407 3.8829L5.87924 3.4001H6.94017L7.8456 4.2829V4.8001H5.38407V3.8829ZM5.17894 5.2001H5.58919V6.6001C5.58876 6.67627 5.63276 6.74605 5.70263 6.7801L6.9334 7.3801C6.99342 7.40895 7.03891 7.46022 7.05955 7.5223C7.08081 7.58892 7.07342 7.6611 7.03904 7.7223C6.98001 7.83777 6.83617 7.88472 6.71773 7.82715C6.71755 7.82707 6.71737 7.82697 6.71719 7.8269L5.88437 7.4209C5.78258 7.3724 5.65976 7.41355 5.61001 7.5128C5.5964 7.54 5.58927 7.56985 5.58919 7.6001V9.6001C5.58919 9.82102 5.40553 10.0001 5.17894 10.0001V8.2001H4.76868V10.0001H4.35842V8.2001H3.94817V10.0001H3.53791V8.2001H3.12765V10.0001C2.90106 10.0001 2.7174 9.82102 2.7174 9.6001V5.2001H5.17894ZM2.51227 1.0001H3.33278V2.0001H2.51227V1.0001ZM2.4056 2.4001H3.43945L3.93176 3.0001H1.9133L2.4056 2.4001ZM1.69176 3.4001H4.1533V4.8001H1.69176V3.4001ZM0.666116 5.6001V5.2001H2.30714V5.6001H0.666116ZM6.40971 10.2001V11.4001C6.41007 11.5364 6.43435 11.6717 6.4815 11.8001H2.07719L1.3096 6.0001H2.30714V9.6001C2.30714 10.0419 2.6745 10.4001 3.12765 10.4001H5.17894C5.63209 10.4001 5.99945 10.0419 5.99945 9.6001V7.9237L6.53524 8.1849C6.85901 8.3407 7.25101 8.2111 7.41081 7.89542C7.41148 7.89412 7.41212 7.8928 7.41278 7.8915C7.49224 7.73792 7.50576 7.5598 7.45032 7.3965C7.39566 7.23312 7.27591 7.09807 7.11801 7.0217L5.99945 6.4765V6.0001H8.22776L7.83063 9.0001H7.64048C6.96101 9.00075 6.41037 9.53762 6.40971 10.2001ZM11.3328 11.4001C11.3328 11.8419 10.9654 12.2001 10.5123 12.2001H10.191C10.0295 12.1999 9.87017 12.1632 9.7256 12.0929C9.31663 11.8948 8.83612 11.8948 8.42714 12.0929C8.28258 12.1632 8.12327 12.1999 7.96171 12.2001H7.64048C7.18732 12.2001 6.81996 11.8419 6.81996 11.4001V11.0921C7.04491 11.2903 7.3373 11.4 7.64048 11.4001H7.96171C8.18699 11.3999 8.40914 11.3488 8.61073 11.2507C8.90404 11.1085 9.24871 11.1085 9.54201 11.2507C9.7436 11.3488 9.96576 11.3999 10.191 11.4001H10.5123C10.8154 11.4 11.1078 11.2903 11.3328 11.0921V11.4001ZM10.5123 11.0001H10.191C10.0295 10.9999 9.87017 10.9632 9.7256 10.8929C9.31663 10.6948 8.83612 10.6948 8.42714 10.8929C8.28258 10.9632 8.12327 10.9999 7.96171 11.0001H7.64048C7.18732 11.0001 6.81996 10.6419 6.81996 10.2001C6.81996 9.75827 7.18732 9.4001 7.64048 9.4001H7.96171C8.12327 9.40032 8.28258 9.437 8.42714 9.5073C8.83614 9.7053 9.3166 9.7053 9.7256 9.5073C9.87017 9.437 10.0295 9.40032 10.191 9.4001H10.5123C10.9654 9.4001 11.3328 9.75827 11.3328 10.2001C11.3328 10.6419 10.9654 11.0001 10.5123 11.0001Z" fill="#FF3D00"/>
</svg>
